<svg version="1.1" id="Layer_1" xmlns="http://www.w3.org/2000/svg" xmlns:xlink="http://www.w3.org/1999/xlink" x="0px" y="0px"
	 width="100%" viewBox="0 0 632 394" enable-background="new 0 0 632 394" xml:space="preserve">
<path fill="#FED564" opacity="1.000000" stroke="none" 
	d="
M404.000000,395.000000 
	C300.645782,395.000000 197.291550,395.000000 93.615051,394.665710 
	C93.205757,392.597748 93.753845,390.443359 92.929153,389.198242 
	C87.353867,380.780426 81.575218,372.491211 75.610207,364.345032 
	C74.833321,363.284088 72.613701,363.279541 71.062340,362.785706 
	C70.914940,364.480042 70.151436,366.446381 70.753395,367.809875 
	C71.871979,370.343628 73.790916,372.523102 75.369553,374.854858 
	C79.914932,381.568604 84.456779,388.284760 89.000000,395.000000 
	C85.969406,395.000000 82.938812,395.000000 79.220032,394.747955 
	C74.083977,392.353821 69.707954,390.043091 65.171043,388.109924 
	C58.664528,385.337524 55.275616,387.726318 55.000000,395.000000 
	C50.643101,395.000000 46.286201,395.000000 41.465675,394.556519 
	C40.629429,389.315308 40.458496,384.490570 39.819279,379.728668 
	C39.323124,376.032532 37.267960,373.587128 33.040688,374.052460 
	C29.092642,374.487061 27.667791,376.822937 27.980145,380.605164 
	C28.376028,385.398804 28.664949,390.201324 29.000000,395.000000 
	C19.673019,395.000000 10.346041,395.000000 1.014296,395.000000 
	C1.009530,263.762421 1.009530,132.524857 1.009530,1.000000 
	C74.353981,1.000000 147.708328,1.000000 221.531433,1.382922 
	C222.260574,2.875942 222.239426,4.171289 222.827850,5.065530 
	C226.195572,10.183497 229.500641,15.370770 233.299545,20.159628 
	C234.421875,21.574427 237.077042,21.773268 239.029755,22.529339 
	C238.834259,20.587505 239.238373,18.289843 238.335236,16.767958 
	C235.131226,11.368913 231.481110,6.234607 228.000000,0.999998 
	C362.940094,1.000000 497.880157,1.000000 632.910156,1.000000 
	C632.910156,132.215073 632.910156,263.430237 632.910156,395.000000 
	C570.979553,395.000000 508.958435,395.000000 446.291260,394.684418 
	C441.703857,390.918152 439.156464,391.069183 435.000000,395.000000 
	C429.311951,395.000000 423.623932,395.000000 417.441406,394.582489 
	C415.950287,385.274170 414.934509,376.385406 413.964142,367.491730 
	C413.368439,362.031921 411.464020,359.914337 407.232330,359.991425 
	C401.782440,360.090668 401.763550,363.910858 402.009460,367.718475 
	C402.597046,376.817230 403.327301,385.906738 404.000000,395.000000 
M339.117218,373.846832 
	C331.232452,359.717072 331.232452,359.717072 328.537537,359.577850 
	C328.537537,366.707092 328.537537,373.830017 328.537537,380.952942 
	C329.128204,380.960052 329.718903,380.967163 330.309570,380.974274 
	C330.309570,375.995667 330.309570,371.017059 330.309570,366.038452 
	C330.769348,365.987946 331.229126,365.937439 331.688904,365.886902 
	C333.337158,368.702148 334.801636,371.648407 336.688080,374.293793 
	C338.395081,376.687592 338.453064,380.842041 342.672058,380.916443 
	C342.672058,373.453217 342.672058,366.298126 342.672058,359.143036 
	C342.015015,359.140442 341.357941,359.137848 340.700897,359.135254 
	C340.700897,363.937927 340.700897,368.740631 340.122223,373.942444 
	C339.936768,374.085632 339.751282,374.228851 339.117218,373.846832 
M202.685242,33.105179 
	C203.878143,33.972031 205.079224,34.827881 206.262543,35.707630 
	C211.780197,39.809753 220.841782,38.529980 224.279434,32.847828 
	C225.484314,30.856279 226.278656,29.509428 228.959930,29.498312 
	C229.773972,29.494936 231.672012,25.951632 231.213425,25.256010 
	C226.934860,18.766167 222.324707,12.486689 217.576263,6.326927 
	C217.070572,5.670937 213.979691,5.920932 213.923981,6.166716 
	C212.970810,10.372349 208.838470,9.755598 206.381348,11.548738 
	C203.872696,13.379471 201.739410,16.023510 200.128983,18.721655 
	C197.100876,23.794979 201.611237,28.198805 201.427612,32.676537 
	C200.567154,31.891638 199.698730,31.115255 198.847488,30.320482 
	C192.700577,24.581293 184.946442,24.560112 179.234756,30.271254 
	C173.481049,36.024452 173.564651,44.633045 179.435059,50.896114 
	C184.572479,56.377178 193.506485,56.509121 199.257431,51.232048 
	C205.097794,45.872932 204.923584,39.645718 202.685242,33.105179 
M536.313538,312.914246 
	C532.237366,311.302338 528.250671,308.702545 524.062805,308.322998 
	C518.550903,307.823517 512.203979,313.555634 511.154205,318.337433 
	C509.608917,325.376587 512.568115,332.221924 518.701050,335.794861 
	C523.301208,338.474854 530.957153,337.214539 535.352966,333.125671 
	C540.785706,328.072205 539.266968,322.010101 538.644836,316.081177 
	C539.360413,316.487244 540.126831,316.824493 540.783875,317.309784 
	C548.393066,322.929413 554.751160,321.915924 560.420593,314.279297 
	C561.137146,313.314117 562.309387,312.328217 563.429749,312.084900 
	C567.971191,311.098389 567.718140,308.397919 565.784912,305.461182 
	C562.404419,300.325897 558.890198,295.258698 555.086243,290.435699 
	C554.094421,289.178223 551.214294,287.851013 550.247681,288.399506 
	C545.778931,290.935364 541.203247,293.634888 537.564453,297.194366 
	C532.726746,301.926605 535.150330,307.685181 536.313538,312.914246 
M488.569000,348.325958 
	C489.428497,349.109863 490.309509,349.871582 491.144165,350.681152 
	C497.962921,357.294952 506.050812,356.397614 511.283813,348.461365 
	C511.786072,347.699646 512.458069,347.049805 513.051270,346.348053 
	C513.608948,346.503082 514.166565,346.658112 514.724243,346.813141 
	C514.307434,348.871368 514.563965,351.610413 513.324219,352.836639 
	C511.184631,354.952789 508.015259,355.985931 505.478333,357.759979 
	C504.224792,358.636566 503.418030,360.152069 502.409058,361.378448 
	C504.206177,362.089813 506.500427,363.871185 507.706665,363.310791 
	C511.244110,361.667236 514.531921,359.316437 517.578674,356.827789 
	C521.831970,353.353638 522.255920,348.442932 519.710327,344.157562 
	C515.481506,337.038544 510.579620,330.290253 505.527557,323.719238 
	C504.734863,322.688202 500.032257,322.924927 499.888214,323.403473 
	C498.507843,327.989166 494.467285,327.036957 491.214874,327.094971 
	C491.214874,299.036316 491.214874,270.977661 491.214874,242.799866 
	C485.432373,242.799866 480.358582,242.799866 474.790894,242.799866 
	C474.790894,255.651199 474.790894,268.173492 474.790894,281.001770 
	C455.885895,268.775696 435.444702,274.016052 426.803680,284.166962 
	C417.131165,295.529633 416.034393,314.341125 424.691620,326.400238 
	C428.726898,332.021179 434.108368,335.890533 440.673981,337.677582 
	C453.017944,341.037262 464.583160,339.077301 475.064087,330.782318 
	C475.382660,333.243408 475.611694,335.012939 475.919800,337.393341 
	C479.372253,337.393341 482.668213,337.393341 485.969910,338.210266 
	C486.650513,341.477783 487.331085,344.745300 487.315277,347.891205 
	C486.089661,347.061646 484.871490,346.220795 483.637085,345.404510 
	C477.866638,341.588867 470.743103,342.135040 465.736450,346.769409 
	C460.758728,351.377014 459.705017,358.145050 463.050507,364.021179 
	C466.606903,370.267792 472.720612,373.160034 478.904968,371.521698 
	C486.273499,369.569611 490.356628,364.491180 489.928864,357.131744 
	C489.750092,354.056702 488.662476,351.034515 488.569000,348.325958 
M114.675957,363.104004 
	C115.505913,363.634460 116.409286,364.078156 117.154510,364.708740 
	C124.937263,371.294189 131.977646,370.316925 137.635925,361.871826 
	C138.041626,361.266266 138.738358,360.855682 139.299789,360.354462 
	C139.823792,360.531342 140.347794,360.708221 140.871780,360.885101 
	C140.366531,362.962067 140.502274,365.689453 139.207550,366.965332 
	C137.206589,368.937225 134.087677,369.718658 131.717331,371.393372 
	C130.350952,372.358734 129.524109,374.087769 128.454407,375.473053 
	C130.271759,376.139954 132.236435,377.592407 133.871246,377.285828 
	C136.204788,376.848297 138.509766,375.398254 140.454391,373.897797 
	C148.332901,367.818756 149.100159,362.525146 143.506088,354.225189 
	C139.708191,348.590149 135.839111,343.003052 132.818054,337.221710 
	C134.201706,337.280701 135.585358,337.339722 136.988861,338.126465 
	C138.794083,347.234650 144.566879,351.786987 153.296356,350.986359 
	C159.900421,350.380646 163.770798,345.513000 165.003296,337.233276 
	C168.662354,337.148529 172.329865,337.193756 175.978943,336.955933 
	C189.817535,336.054016 199.792130,325.594910 199.865021,311.781525 
	C199.915817,302.157196 196.108215,294.723083 186.585403,290.998627 
	C187.254013,290.206940 187.525574,289.783508 187.890503,289.468170 
	C196.344193,282.164032 198.928802,272.709778 195.362198,262.080750 
	C192.541977,253.676071 184.737137,248.390030 173.918747,247.956696 
	C166.274109,247.650497 158.613647,247.711243 150.959930,247.667664 
	C143.504196,247.625214 136.048050,247.658432 128.154434,247.658432 
	C128.154434,250.176285 128.158966,252.141312 128.153763,254.106308 
	C128.081558,281.395874 128.008011,308.685455 127.251556,336.229187 
	C125.969154,339.351562 124.038544,340.984192 120.323540,341.616791 
	C115.127914,342.501556 111.927803,347.092896 112.105659,352.475403 
	C112.222328,356.006287 113.341072,359.504089 113.424232,362.673370 
	C112.800629,362.127930 112.158607,361.602020 111.556282,361.034027 
	C105.498894,355.321869 96.892265,355.464172 91.124352,361.379303 
	C85.549286,367.096741 85.848114,375.352631 91.847443,381.355957 
	C97.903000,387.415558 105.613899,387.527924 111.754967,381.766144 
	C117.799706,376.094757 116.540100,369.638031 114.675957,363.104004 
M153.689316,68.100540 
	C154.527451,68.621384 155.402435,69.091644 156.197998,69.670959 
	C163.628677,75.081879 170.674576,73.796249 175.825684,66.105240 
	C176.301086,65.395416 176.995163,64.832031 177.587692,64.200638 
	C178.090546,64.377594 178.593384,64.554558 179.096237,64.731514 
	C178.523010,66.858734 178.569977,69.585358 177.230118,70.971642 
	C175.257187,73.012962 172.152130,73.908470 169.814362,75.670250 
	C168.616516,76.572968 168.037506,78.296837 167.178818,79.649590 
	C168.640305,80.194824 170.541702,81.609070 171.485336,81.131363 
	C175.121353,79.290634 178.686584,77.132378 181.835922,74.552567 
	C185.840195,71.272423 186.442154,66.219772 184.168213,62.257389 
	C179.964386,54.932156 174.730698,48.184963 169.749481,41.325180 
	C167.733368,38.548737 165.828430,38.945213 164.091919,42.027264 
	C163.369644,43.309231 161.739563,44.637661 160.335876,44.884392 
	C152.954651,46.181801 148.529327,52.719086 150.511063,59.964542 
	C151.251862,62.672974 152.171310,65.332550 152.431290,67.657227 
	C149.007034,62.404179 144.139984,60.425873 137.966751,60.975018 
	C129.918182,61.690979 124.777000,68.892403 126.055740,77.924179 
	C127.085289,85.195976 135.648453,91.262283 142.563614,89.618675 
	C152.487503,87.259964 156.239288,79.476402 153.689316,68.100540 
M411.921234,147.992401 
	C413.747345,149.077164 415.471893,150.421417 417.423584,151.185349 
	C420.287689,152.306427 423.381287,153.934006 426.259155,153.724640 
	C435.325684,153.064987 441.638550,145.394638 440.966827,136.778732 
	C440.306396,128.308350 431.688599,120.510063 423.279449,121.082870 
	C420.693024,121.259064 418.166748,122.317894 415.412872,122.069374 
	C416.309143,103.224937 412.164337,85.518173 403.763824,68.663940 
	C382.731232,26.465666 331.812958,2.771790 286.063904,14.031182 
	C240.977859,25.127407 208.350952,61.504944 204.484756,107.528938 
	C201.064133,148.248810 216.824707,181.333252 250.594193,204.380005 
	C283.702759,226.975693 319.300110,229.133743 355.732483,212.271271 
	C374.338440,203.659637 388.474091,189.782257 400.556183,172.845291 
	C404.475403,170.236694 409.000519,168.207138 412.174225,164.886139 
	C417.148865,159.680664 416.197449,156.272324 409.910156,151.198898 
	C410.345947,150.109665 410.781769,149.020432 411.921234,147.992401 
M402.764771,324.171417 
	C400.693604,324.268250 398.570312,324.103973 396.560028,324.505524 
	C385.845612,326.645599 375.158417,327.903564 364.616882,323.811035 
	C359.954895,322.001160 357.123016,318.622437 356.532349,312.867523 
	C373.870056,312.867523 390.916870,312.867523 407.845703,312.867523 
	C410.718597,297.565186 405.040497,284.356842 392.938599,277.819214 
	C385.471100,273.785156 377.327606,273.413452 369.107941,274.177979 
	C353.957184,275.587189 343.101807,285.764893 341.161285,300.199524 
	C338.823395,317.589935 345.561310,330.173798 360.382751,336.083679 
	C370.496429,340.116364 380.901764,339.526245 391.366333,338.033752 
	C402.877350,336.392059 402.878387,336.399445 402.764771,324.171417 
M210.689804,300.266388 
	C207.480988,319.798096 217.604950,334.679321 236.852463,338.149414 
	C241.704025,339.024109 246.805542,339.191284 251.732605,338.842285 
	C267.089386,337.754547 278.415527,328.144135 281.299683,314.282288 
	C284.546936,298.675415 278.569733,284.843750 265.144592,278.019836 
	C255.396088,273.064758 244.893661,272.561340 234.491806,275.284485 
	C221.995346,278.556091 213.321396,286.082764 210.689804,300.266388 
M321.689758,278.010742 
	C318.152161,279.900665 314.614532,281.790588 310.897278,283.776520 
	C310.736481,281.050842 310.593140,278.620483 310.447876,276.157776 
	C305.098511,276.157776 300.201111,276.157776 295.175140,276.157776 
	C295.175140,296.536774 295.175140,316.590027 295.175140,336.900452 
	C300.477783,336.900452 305.529938,336.900452 311.074310,336.900452 
	C311.074310,326.202698 311.073578,315.764221 311.074524,305.325714 
	C311.075226,297.440155 314.088470,293.083252 321.811096,290.778961 
	C326.658691,289.332520 331.694672,288.517609 336.575378,287.435059 
	C336.575378,283.609467 336.575378,279.869659 336.575378,275.329742 
	C331.556122,276.241821 327.016541,277.066742 321.689758,278.010742 
M78.758942,88.983826 
	C78.518692,87.847298 78.180717,86.721497 78.054726,85.572433 
	C77.433762,79.909500 75.204094,77.471886 71.086060,78.047424 
	C67.062172,78.609810 65.562523,81.950264 66.269081,87.380798 
	C67.358276,95.752289 68.096313,104.169212 69.005272,112.564484 
	C69.860641,120.464752 70.627388,128.377487 71.673019,136.252899 
	C72.094452,139.427017 74.126053,141.356262 77.598785,140.938049 
	C81.098007,140.516663 82.919235,138.392807 82.973930,134.908691 
	C83.015617,132.253738 82.983292,129.580231 82.722221,126.940872 
	C81.499611,114.580345 80.186386,102.228790 78.758942,88.983826 
M536.197144,41.312531 
	C530.806580,42.466122 530.154480,43.680378 533.155090,48.111393 
	C536.879211,53.610783 540.726013,59.045338 544.851990,64.244331 
	C546.275330,66.037926 550.015137,68.546646 550.449036,68.166069 
	C553.767151,65.255623 549.853943,63.374786 548.685974,61.215996 
	C546.906921,57.927746 544.629456,54.909142 542.563660,51.776028 
	C542.904541,51.505520 543.245483,51.235012 543.586426,50.964504 
	C548.064453,53.764519 552.469360,56.694160 557.064697,59.286259 
	C558.460449,60.073559 561.116699,60.730160 561.889099,60.021873 
	C563.026062,58.979317 563.595032,56.567856 563.343750,54.899471 
	C562.544922,49.595310 561.254456,44.365189 560.153992,39.106449 
	C560.529846,38.923706 560.905640,38.740959 561.281494,38.558216 
	C564.264648,42.655956 567.170288,46.814491 570.296814,50.799812 
	C570.917358,51.590809 572.384460,51.717674 573.461182,52.150814 
	C573.796387,50.863605 574.847107,49.101871 574.356628,48.362206 
	C569.153870,40.516964 563.706116,32.834225 558.468628,25.311863 
	C554.057739,26.628233 552.742554,28.888990 553.982788,32.667057 
	C554.706543,34.871681 555.186340,37.170567 555.604309,39.458389 
	C556.439941,44.032043 557.157715,48.627239 558.124084,54.410561 
	C550.176453,49.622192 543.516846,45.609825 536.197144,41.312531 
M512.511230,79.992256 
	C519.663757,86.688332 527.760071,86.677628 534.529053,79.963158 
	C540.922607,73.621132 540.626831,64.987297 533.753784,57.327068 
	C527.814880,50.707920 519.370300,50.252090 512.370544,56.172806 
	C505.112427,62.312046 504.979919,70.607605 512.511230,79.992256 
M460.869659,387.700043 
	C460.432434,386.823181 460.226044,385.504761 459.522675,385.137115 
	C451.640991,381.017242 443.780792,376.818939 435.641327,373.268829 
	C434.392609,372.724182 430.967773,374.914642 430.020050,376.645447 
	C429.258118,378.036926 430.297974,380.897369 431.329041,382.637512 
	C432.172211,384.060669 434.081512,384.996399 435.693756,385.792694 
	C440.614471,388.222961 445.607452,390.508667 450.595734,392.799622 
	C456.144165,395.347870 458.558533,394.303894 460.869659,387.700043 
M99.486763,90.994148 
	C97.681061,92.303909 94.623245,93.414925 94.376068,94.972084 
	C94.042099,97.076019 95.214622,100.672142 96.882164,101.620049 
	C103.488441,105.375313 110.486519,108.467628 117.450066,111.556068 
	C120.556572,112.933846 123.511887,111.399712 124.285553,108.508354 
	C124.836418,106.449646 124.050034,102.503387 122.589752,101.695068 
	C115.393555,97.711700 107.773270,94.494476 99.486763,90.994148 
M456.965973,124.513344 
	C460.005402,121.357391 462.654358,122.430862 465.674988,124.824089 
	C466.566284,125.530228 468.792053,124.552071 470.406250,124.345787 
	C469.972443,123.257256 469.857330,121.717827 469.054962,121.150681 
	C461.862152,116.066429 454.630371,111.024025 447.193787,106.310486 
	C445.876129,105.475327 443.200806,105.617538 441.820496,106.435631 
	C440.819580,107.028870 440.305695,109.621864 440.634247,111.085243 
	C442.490936,119.354858 444.580933,127.576538 446.832458,135.748123 
	C447.156708,136.925064 448.783813,137.743011 449.808014,138.727112 
	C450.499390,137.388184 452.088074,135.711868 451.732635,134.766525 
	C449.813843,129.663422 452.039642,126.899254 456.965973,124.513344 
M502.532532,102.239944 
	C509.497742,98.542824 513.154114,92.593872 511.514130,87.317047 
	C511.168427,86.204758 510.094421,85.318810 509.356018,84.328568 
	C508.575470,85.426781 507.525238,86.425323 507.074341,87.645363 
	C506.300262,89.739899 506.494049,92.425301 505.240845,94.069351 
	C499.730804,101.297684 493.652588,100.360512 487.844482,91.819885 
	C485.327362,88.118576 484.035950,84.305649 486.619598,80.250504 
	C489.169556,76.248276 493.031067,75.445206 497.551910,76.288475 
	C499.147522,76.586098 500.907593,76.001709 503.668213,75.704033 
	C499.315613,70.306496 494.973785,70.162361 490.585022,71.835381 
	C484.731323,74.066841 480.736816,78.458969 480.410034,84.802902 
	C480.085815,91.097000 483.223755,96.367462 488.058380,100.292259 
	C492.087311,103.563019 496.641754,105.489708 502.532532,102.239944 
M110.457809,118.835167 
	C112.516220,116.051712 112.232376,112.925270 109.515434,111.458626 
	C107.411171,110.322716 103.825439,110.081329 101.746338,111.127556 
	C97.192223,113.419266 93.114006,116.695320 88.957184,119.728027 
	C83.867355,123.441422 83.332474,129.375351 87.896362,135.288071 
	C95.246193,130.009262 102.625526,124.709267 110.457809,118.835167 
M448.180023,359.321136 
	C452.418182,365.481567 456.496002,371.763519 461.008453,377.716003 
	C462.120941,379.183533 464.647980,379.578735 466.524719,380.466919 
	C466.425171,378.268951 466.962891,375.763489 466.083771,373.941711 
	C464.588470,370.843140 462.185028,368.186310 460.192902,365.323212 
	C456.777344,360.414429 453.571869,355.340454 449.852844,350.674927 
	C448.903992,349.484619 446.358002,349.567444 444.545807,349.065338 
	C444.551331,350.807983 444.136993,352.696228 444.677155,354.253418 
	C445.248749,355.901154 446.728638,357.233856 448.180023,359.321136 
M294.591217,368.565460 
	C294.766113,372.738800 294.215729,377.010895 294.913788,381.112976 
	C295.586090,381.083130 296.258362,381.053284 296.930664,381.023438 
	C297.152161,376.698364 297.373627,372.373260 297.595093,368.048157 
	C297.958923,368.034424 298.322723,368.020721 298.686523,368.006989 
	C300.225372,371.672729 301.764221,375.338470 303.913055,380.457336 
	C306.085541,374.822723 307.681488,370.683472 309.277435,366.544189 
	C310.767548,380.043701 310.767548,380.043701 312.644714,380.800537 
	C312.644714,373.579254 312.644714,366.403595 312.644714,357.836914 
	C306.338501,362.063263 307.555908,369.193390 303.406799,374.012421 
	C301.740387,369.331635 300.346863,365.134460 298.704681,361.036896 
	C298.365723,360.191101 297.100708,359.716400 296.262543,359.070648 
	C295.710297,359.917480 294.793488,360.718628 294.680542,361.620483 
	C294.434052,363.588745 294.596436,365.608215 294.591217,368.565460 
M117.430626,73.083893 
	C116.345528,71.616829 115.496719,69.844635 114.108208,68.769363 
	C112.746841,67.715103 110.836365,67.369911 109.166878,66.713524 
	C109.154343,68.534149 108.414871,70.833038 109.247047,72.097916 
	C114.719513,80.415848 120.427223,88.587563 126.351692,96.589676 
	C127.169914,97.694839 129.608688,97.600197 131.297211,98.061012 
	C131.279678,96.319237 131.932571,94.143066 131.132523,92.908302 
	C126.897560,86.372131 122.297188,80.072716 117.430626,73.083893 
M353.253052,363.591248 
	C356.718201,362.855560 360.183380,362.119904 364.905060,361.117462 
	C362.335724,360.191437 360.415497,358.957062 358.453217,358.886169 
	C350.028992,358.581696 345.398254,368.233398 349.844818,376.528107 
	C351.941620,380.439545 356.173065,382.036987 360.901367,381.047211 
	C365.619019,380.059692 364.934326,376.541077 364.880890,373.258423 
	C364.862915,372.155243 364.716797,371.054108 364.587128,369.422272 
	C362.005981,369.712311 359.839905,369.955719 357.673859,370.199127 
	C357.682220,370.641968 357.690582,371.084808 357.698944,371.527679 
	C359.145447,371.872864 360.591949,372.218079 363.249878,372.852386 
	C361.906342,375.158997 360.612579,378.510651 359.906311,378.391113 
	C357.269318,377.944824 353.237213,376.878448 352.654358,375.090759 
	C351.595367,371.842712 352.630188,367.911987 353.253052,363.591248 
M557.151917,284.569122 
	C561.707397,291.385742 566.205505,298.242737 570.924133,304.944458 
	C571.313049,305.496826 573.895447,305.440125 574.244690,304.892395 
	C574.996521,303.713226 575.710693,301.535461 575.118896,300.632568 
	C571.317444,294.833221 567.288269,289.168121 563.050964,283.677307 
	C561.461670,281.617889 559.152283,281.078491 557.151917,284.569122 
M257.900848,371.254333 
	C258.035400,362.884125 258.621948,362.453339 270.611237,361.556580 
	C269.147766,360.330383 267.519470,359.107941 265.783997,358.929962 
	C259.003418,358.234589 254.409561,363.499268 254.841827,371.136230 
	C255.224335,377.894409 259.549377,381.851807 265.803711,381.166351 
	C271.473999,380.544922 272.426727,378.421539 270.697968,369.502777 
	C268.500519,369.711914 266.279846,369.923309 264.059204,370.134674 
	C264.103119,370.622070 264.147034,371.109467 264.190948,371.596893 
	C265.724243,371.914520 267.257568,372.232147 269.681885,372.734344 
	C268.685638,374.944183 268.023773,378.127319 267.053192,378.224457 
	C264.703094,378.459503 261.997650,377.642853 259.860504,376.473328 
	C258.756805,375.869324 258.559479,373.609070 257.900848,371.254333 
M471.565857,116.879387 
	C475.530640,121.590202 475.530640,121.590202 478.645752,117.636642 
	C472.848541,109.478828 467.021576,101.279160 460.954102,92.741028 
	C459.326843,94.014023 458.241486,94.863075 457.051086,95.794312 
	C461.944672,102.894066 466.558258,109.587570 471.565857,116.879387 
M282.524658,359.056122 
	C277.067017,365.300568 276.727264,373.426331 273.302399,381.252167 
	C278.804657,380.748444 276.606445,374.200256 282.382965,373.974792 
	C288.413116,373.739380 286.280670,380.746002 292.025726,381.180023 
	C288.868073,373.209534 286.073853,366.156494 282.524658,359.056122 
M417.781158,375.483490 
	C419.842377,378.656616 422.804230,379.906128 425.698029,377.328674 
	C427.340027,375.866150 429.026093,372.201569 428.284393,370.855774 
	C427.239441,368.959717 423.846222,367.139893 421.663940,367.358002 
	C417.853516,367.738800 416.255341,370.813751 417.781158,375.483490 
M81.555298,89.032486 
	C80.909348,92.786453 82.470406,95.737823 86.151550,95.700226 
	C88.376358,95.677498 91.375175,93.675423 92.500381,91.695526 
	C93.223900,90.422447 91.765251,86.483620 90.245338,85.661751 
	C87.202240,84.016235 83.723587,84.502884 81.555298,89.032486 
M43.090637,385.732269 
	C43.516441,387.095856 43.609341,388.720001 44.432911,389.772278 
	C46.570965,392.504089 49.606533,393.005981 52.275673,390.932617 
	C54.718742,389.034882 56.212650,386.250519 53.639389,383.243500 
	C51.239845,380.439453 48.329651,380.103699 45.344097,382.290649 
	C44.462997,382.936035 43.936710,384.065796 43.090637,385.732269 
M321.762177,379.966797 
	C322.486633,362.464539 322.329346,360.834625 319.027954,358.760834 
	C319.027954,366.055115 318.996582,372.914917 319.123047,379.771851 
	C319.129181,380.104919 320.520569,380.412445 321.762177,379.966797 
M487.257446,108.468079 
	C485.540161,108.484169 483.772430,108.289268 482.144287,108.678383 
	C481.779297,108.765610 481.383881,111.315224 481.925537,111.987976 
	C482.701599,112.951805 484.326202,113.232414 485.588501,113.804733 
	C486.281464,112.235916 486.974457,110.667091 487.257446,108.468079 
M551.732056,277.994110 
	C553.390625,278.354553 555.043945,278.869141 556.712830,278.926117 
	C556.996155,278.935791 557.800964,276.839325 557.532776,275.973724 
	C557.284973,275.173981 555.549255,274.016144 555.115845,274.244446 
	C553.738770,274.969757 552.663818,276.268494 551.732056,277.994110 
z"/>
<path fill="#F0D383" opacity="1.000000" stroke="none" 
	d="
M404.463196,395.000000 
	C403.327301,385.906738 402.597046,376.817230 402.009460,367.718475 
	C401.763550,363.910858 401.782440,360.090668 407.232330,359.991425 
	C411.464020,359.914337 413.368439,362.031921 413.964142,367.491730 
	C414.934509,376.385406 415.950287,385.274170 416.973450,394.582489 
	C412.975464,395.000000 408.950897,395.000000 404.463196,395.000000 
z"/>
<path fill="#F0D383" opacity="1.000000" stroke="none" 
	d="
M29.460636,395.000000 
	C28.664949,390.201324 28.376028,385.398804 27.980145,380.605164 
	C27.667791,376.822937 29.092642,374.487061 33.040688,374.052460 
	C37.267960,373.587128 39.323124,376.032532 39.819279,379.728668 
	C40.458496,384.490570 40.629429,389.315308 41.001026,394.556519 
	C37.307091,395.000000 33.614182,395.000000 29.460636,395.000000 
z"/>
<path fill="#F0D383" opacity="1.000000" stroke="none" 
	d="
M89.399994,395.000000 
	C84.456779,388.284760 79.914932,381.568604 75.369553,374.854858 
	C73.790916,372.523102 71.871979,370.343628 70.753395,367.809875 
	C70.151436,366.446381 70.914940,364.480042 71.062340,362.785706 
	C72.613701,363.279541 74.833321,363.284088 75.610207,364.345032 
	C81.575218,372.491211 87.353867,380.780426 92.929153,389.198242 
	C93.753845,390.443359 93.205757,392.597748 93.146393,394.665710 
	C91.933327,395.000000 90.866661,395.000000 89.399994,395.000000 
z"/>
<path fill="#F0D381" opacity="1.000000" stroke="none" 
	d="
M227.571533,0.999998 
	C231.481110,6.234607 235.131226,11.368913 238.335236,16.767958 
	C239.238373,18.289843 238.834259,20.587505 239.029755,22.529339 
	C237.077042,21.773268 234.421875,21.574427 233.299545,20.159628 
	C229.500641,15.370770 226.195572,10.183497 222.827850,5.065530 
	C222.239426,4.171289 222.260574,2.875942 222.000092,1.382922 
	C223.714355,1.000000 225.428711,1.000000 227.571533,0.999998 
z"/>
<path fill="#F0D383" opacity="1.000000" stroke="none" 
	d="
M55.468636,395.000000 
	C55.275616,387.726318 58.664528,385.337524 65.171043,388.109924 
	C69.707954,390.043091 74.083977,392.353821 78.765930,394.747955 
	C71.312424,395.000000 63.624847,395.000000 55.468636,395.000000 
z"/>
<path fill="#F0D383" opacity="1.000000" stroke="none" 
	d="
M435.458069,395.000000 
	C439.156464,391.069183 441.703857,390.918152 445.822601,394.684418 
	C442.638702,395.000000 439.277435,395.000000 435.458069,395.000000 
z"/>
<path fill="#373634" opacity="1.000000" stroke="none" 
	d="
M399.822235,172.909637 
	C388.474091,189.782257 374.338440,203.659637 355.732483,212.271271 
	C319.300110,229.133743 283.702759,226.975693 250.594193,204.380005 
	C216.824707,181.333252 201.064133,148.248810 204.484756,107.528938 
	C208.350952,61.504944 240.977859,25.127407 286.063904,14.031182 
	C331.812958,2.771790 382.731232,26.465666 403.763824,68.663940 
	C412.164337,85.518173 416.309143,103.224937 415.372437,122.874611 
	C415.241394,125.782532 415.150787,127.885216 414.922302,130.367218 
	C414.354797,133.405365 413.925171,136.064194 413.329895,139.047638 
	C412.515411,142.225250 411.866486,145.078232 411.217590,147.931198 
	C410.781769,149.020432 410.345947,150.109665 409.657837,151.825577 
	C406.211060,159.271378 403.016663,166.090515 399.822235,172.909637 
M388.555206,158.588730 
	C390.337189,154.375473 392.119202,150.162231 394.225342,145.332718 
	C394.711884,143.553757 395.198395,141.774811 396.023407,139.265091 
	C401.222321,119.381233 399.882172,99.936790 391.103088,81.358040 
	C373.640503,44.402641 338.200928,25.116301 297.424774,29.936005 
	C250.746078,35.453381 215.261551,81.467903 222.287003,128.100815 
	C227.698639,164.021622 247.466309,189.111176 281.756622,201.593735 
	C300.379486,208.372955 319.526154,208.315659 339.005615,201.180801 
	C340.401428,200.603424 341.797241,200.026062 343.911407,199.251312 
	C349.734894,195.914093 355.558350,192.576859 361.990540,189.042542 
	C363.135803,188.097839 364.281097,187.153137 366.047943,186.004974 
	C370.400665,181.413269 374.753387,176.821564 379.695129,171.947754 
	C380.508698,170.694504 381.322266,169.441238 382.687317,167.951553 
	C383.195160,167.115585 383.703003,166.279617 384.754303,165.022064 
	C385.846802,163.030380 386.939331,161.038696 388.555206,158.588730 
z"/>
<path fill="#373634" opacity="1.000000" stroke="none" 
	d="
M136.969009,337.398743 
	C135.585358,337.339722 134.201706,337.280701 132.039871,337.221619 
	C130.152725,336.806030 129.043762,336.390533 127.934799,335.975006 
	C128.008011,308.685455 128.081558,281.395874 128.153763,254.106308 
	C128.158966,252.141312 128.154434,250.176285 128.154434,247.658432 
	C136.048050,247.658432 143.504196,247.625214 150.959930,247.667664 
	C158.613647,247.711243 166.274109,247.650497 173.918747,247.956696 
	C184.737137,248.390030 192.541977,253.676071 195.362198,262.080750 
	C198.928802,272.709778 196.344193,282.164032 187.890503,289.468170 
	C187.525574,289.783508 187.254013,290.206940 186.585403,290.998627 
	C196.108215,294.723083 199.915817,302.157196 199.865021,311.781525 
	C199.792130,325.594910 189.817535,336.054016 175.978943,336.955933 
	C172.329865,337.193756 168.662354,337.148529 164.130997,337.231293 
	C161.852875,337.278534 160.447067,337.327759 158.577637,337.288971 
	C153.056229,337.261719 147.998428,337.322418 142.702881,337.323944 
	C142.465149,337.264740 141.994476,337.401093 141.582047,337.314606 
	C139.769409,337.285004 138.369217,337.341858 136.969009,337.398743 
M182.595627,317.511261 
	C184.538345,307.461670 182.767899,302.469238 175.594391,299.175598 
	C165.373688,298.625824 155.152985,298.076019 144.789383,297.518524 
	C144.789383,306.789612 144.789383,314.932465 144.950684,323.858368 
	C149.002014,323.973053 153.053329,324.087769 157.902237,324.388824 
	C159.259186,324.328827 160.616150,324.268829 162.636414,324.483429 
	C164.785980,324.394775 166.935562,324.306122 169.927231,324.327698 
	C174.871323,323.962158 179.904770,323.769043 182.595627,317.511261 
M144.545593,268.516052 
	C144.545593,273.901886 144.545593,279.287689 144.545593,284.545654 
	C153.935516,284.545654 162.564743,285.036926 171.106262,284.382904 
	C177.402710,283.900757 180.273926,279.544373 180.349823,272.889404 
	C180.431015,265.768402 178.056747,261.545868 172.301208,261.181183 
	C163.280609,260.609558 154.197159,261.029541 144.545303,261.029541 
	C144.545303,263.291473 144.545303,265.404083 144.545593,268.516052 
z"/>
<path fill="#353534" opacity="1.000000" stroke="none" 
	d="
M485.964142,337.393311 
	C482.668213,337.393341 479.372253,337.393341 475.919800,337.393341 
	C475.611694,335.012939 475.382660,333.243408 475.064087,330.782318 
	C464.583160,339.077301 453.017944,341.037262 440.673981,337.677582 
	C434.108368,335.890533 428.726898,332.021179 424.691620,326.400238 
	C416.034393,314.341125 417.131165,295.529633 426.803680,284.166962 
	C435.444702,274.016052 455.885895,268.775696 474.790894,281.001770 
	C474.790894,268.173492 474.790894,255.651199 474.790894,242.799866 
	C480.358582,242.799866 485.432373,242.799866 491.214874,242.799866 
	C491.214874,270.977661 491.214874,299.036316 491.214142,328.004761 
	C491.213409,331.608337 491.213409,334.302155 491.213409,336.909882 
	C488.890137,337.123840 487.427124,337.258575 485.964142,337.393311 
M457.242950,326.328644 
	C475.274017,323.493652 477.208130,311.056030 474.080597,298.633270 
	C472.199402,291.161041 463.735870,286.544342 455.162933,286.573151 
	C446.545380,286.602112 439.286560,291.485291 436.480530,299.067200 
	C431.936340,311.345734 439.105133,327.138916 457.242950,326.328644 
z"/>
<path fill="#373634" opacity="1.000000" stroke="none" 
	d="
M402.796021,324.606079 
	C402.878387,336.399445 402.877350,336.392059 391.366333,338.033752 
	C380.901764,339.526245 370.496429,340.116364 360.382751,336.083679 
	C345.561310,330.173798 338.823395,317.589935 341.161285,300.199524 
	C343.101807,285.764893 353.957184,275.587189 369.107941,274.177979 
	C377.327606,273.413452 385.471100,273.785156 392.938599,277.819214 
	C405.040497,284.356842 410.718597,297.565186 407.845703,312.867523 
	C390.916870,312.867523 373.870056,312.867523 356.532349,312.867523 
	C357.123016,318.622437 359.954895,322.001160 364.616882,323.811035 
	C375.158417,327.903564 385.845612,326.645599 396.560028,324.505524 
	C398.570312,324.103973 400.693604,324.268250 402.796021,324.606079 
M380.483643,301.848480 
	C384.571655,301.848480 388.659637,301.848480 392.730469,301.848480 
	C392.818756,292.078308 385.772095,286.435059 374.288300,286.523712 
	C365.864838,286.588745 355.872589,290.759552 356.659180,301.435242 
	C356.968201,301.544678 357.276642,301.747894 357.586365,301.749847 
	C364.886871,301.795837 372.187531,301.820160 380.483643,301.848480 
z"/>
<path fill="#363634" opacity="1.000000" stroke="none" 
	d="
M210.764267,299.842590 
	C213.321396,286.082764 221.995346,278.556091 234.491806,275.284485 
	C244.893661,272.561340 255.396088,273.064758 265.144592,278.019836 
	C278.569733,284.843750 284.546936,298.675415 281.299683,314.282288 
	C278.415527,328.144135 267.089386,337.754547 251.732605,338.842285 
	C246.805542,339.191284 241.704025,339.024109 236.852463,338.149414 
	C217.604950,334.679321 207.480988,319.798096 210.764267,299.842590 
M263.559875,315.706940 
	C263.940918,314.609161 264.403992,313.532318 264.690033,312.410309 
	C266.949249,303.548615 264.143433,294.305786 257.904053,289.939880 
	C251.695084,285.595276 241.079147,285.453735 234.739532,289.631042 
	C228.380997,293.820801 225.409775,302.374603 227.186203,311.376221 
	C228.652435,318.805908 234.633041,324.856750 241.687881,326.048218 
	C251.383667,327.685669 258.208527,324.627350 263.559875,315.706940 
z"/>
<path fill="#343433" opacity="1.000000" stroke="none" 
	d="
M322.083374,277.951202 
	C327.016541,277.066742 331.556122,276.241821 336.575378,275.329742 
	C336.575378,279.869659 336.575378,283.609467 336.575378,287.435059 
	C331.694672,288.517609 326.658691,289.332520 321.811096,290.778961 
	C314.088470,293.083252 311.075226,297.440155 311.074524,305.325714 
	C311.073578,315.764221 311.074310,326.202698 311.074310,336.900452 
	C305.529938,336.900452 300.477783,336.900452 295.175140,336.900452 
	C295.175140,316.590027 295.175140,296.536774 295.175140,276.157776 
	C300.201111,276.157776 305.098511,276.157776 310.447876,276.157776 
	C310.593140,278.620483 310.736481,281.050842 310.897278,283.776520 
	C314.614532,281.790588 318.152161,279.900665 322.083374,277.951202 
z"/>
<path fill="#EFD381" opacity="1.000000" stroke="none" 
	d="
M78.832230,89.428925 
	C80.186386,102.228790 81.499611,114.580345 82.722221,126.940872 
	C82.983292,129.580231 83.015617,132.253738 82.973930,134.908691 
	C82.919235,138.392807 81.098007,140.516663 77.598785,140.938049 
	C74.126053,141.356262 72.094452,139.427017 71.673019,136.252899 
	C70.627388,128.377487 69.860641,120.464752 69.005272,112.564484 
	C68.096313,104.169212 67.358276,95.752289 66.269081,87.380798 
	C65.562523,81.950264 67.062172,78.609810 71.086060,78.047424 
	C75.204094,77.471886 77.433762,79.909500 78.054726,85.572433 
	C78.180717,86.721497 78.518692,87.847298 78.832230,89.428925 
z"/>
<path fill="#F0D381" opacity="1.000000" stroke="none" 
	d="
M153.009308,68.014397 
	C152.171310,65.332550 151.251862,62.672974 150.511063,59.964542 
	C148.529327,52.719086 152.954651,46.181801 160.335876,44.884392 
	C161.739563,44.637661 163.369644,43.309231 164.091919,42.027264 
	C165.828430,38.945213 167.733368,38.548737 169.749481,41.325180 
	C174.730698,48.184963 179.964386,54.932156 184.168213,62.257389 
	C186.442154,66.219772 185.840195,71.272423 181.835922,74.552567 
	C178.686584,77.132378 175.121353,79.290634 171.485336,81.131363 
	C170.541702,81.609070 168.640305,80.194824 167.178818,79.649582 
	C168.037506,78.296837 168.616516,76.572968 169.814362,75.670250 
	C172.152130,73.908470 175.257187,73.012962 177.230118,70.971642 
	C178.569977,69.585358 178.523010,66.858734 179.096237,64.731514 
	C178.593384,64.554558 178.090546,64.377594 177.587692,64.200638 
	C176.995163,64.832031 176.301086,65.395416 175.825684,66.105240 
	C170.674576,73.796249 163.628677,75.081879 156.197998,69.670959 
	C155.402435,69.091644 154.527451,68.621384 153.344818,68.050598 
	C153.000336,68.000664 153.009308,68.014397 153.009308,68.014397 
M168.229523,65.848106 
	C169.484695,64.550888 171.623825,63.365215 171.804611,61.932426 
	C172.144577,59.238171 172.025513,56.077682 170.878983,53.698067 
	C169.073715,49.951241 165.028275,48.848682 161.478058,50.377892 
	C159.309555,51.311947 157.192657,54.132957 156.559845,56.508064 
	C155.111343,61.944622 161.354233,67.147835 168.229523,65.848106 
z"/>
<path fill="#F0D383" opacity="1.000000" stroke="none" 
	d="
M127.593178,336.102112 
	C129.043762,336.390533 130.152725,336.806030 131.631775,337.308044 
	C135.839111,343.003052 139.708191,348.590149 143.506088,354.225189 
	C149.100159,362.525146 148.332901,367.818756 140.454391,373.897797 
	C138.509766,375.398254 136.204788,376.848297 133.871246,377.285828 
	C132.236435,377.592407 130.271759,376.139954 128.454407,375.473053 
	C129.524109,374.087769 130.350952,372.358734 131.717331,371.393372 
	C134.087677,369.718658 137.206589,368.937225 139.207550,366.965332 
	C140.502274,365.689453 140.366531,362.962067 140.871780,360.885101 
	C140.347794,360.708221 139.823792,360.531342 139.299789,360.354462 
	C138.738358,360.855682 138.041626,361.266266 137.635925,361.871826 
	C131.977646,370.316925 124.937263,371.294189 117.154510,364.708740 
	C116.409286,364.078156 115.505913,363.634460 114.338196,363.052429 
	C114.000443,363.000885 114.011040,363.016693 114.011040,363.016693 
	C113.341072,359.504089 112.222328,356.006287 112.105659,352.475403 
	C111.927803,347.092896 115.127914,342.501556 120.323540,341.616791 
	C124.038544,340.984192 125.969154,339.351562 127.593178,336.102112 
M127.113876,346.061615 
	C121.755348,346.113831 118.394363,348.484131 118.038345,352.462067 
	C117.684006,356.421295 122.146446,362.380829 125.854752,362.900787 
	C129.446442,363.404358 133.542007,360.142303 134.467392,356.040894 
	C135.320648,352.259125 132.826141,348.517853 127.113876,346.061615 
z"/>
<path fill="#EFD282" opacity="1.000000" stroke="none" 
	d="
M485.967041,337.801788 
	C487.427124,337.258575 488.890137,337.123840 491.213409,336.909882 
	C491.213409,334.302155 491.213409,331.608337 491.300262,328.467285 
	C494.467285,327.036957 498.507843,327.989166 499.888214,323.403473 
	C500.032257,322.924927 504.734863,322.688202 505.527557,323.719238 
	C510.579620,330.290253 515.481506,337.038544 519.710327,344.157562 
	C522.255920,348.442932 521.831970,353.353638 517.578674,356.827789 
	C514.531921,359.316437 511.244110,361.667236 507.706665,363.310791 
	C506.500427,363.871185 504.206177,362.089813 502.409058,361.378479 
	C503.418030,360.152069 504.224792,358.636566 505.478333,357.759979 
	C508.015259,355.985931 511.184631,354.952789 513.324219,352.836639 
	C514.563965,351.610413 514.307434,348.871368 514.724243,346.813141 
	C514.166565,346.658112 513.608948,346.503082 513.051270,346.348053 
	C512.458069,347.049805 511.786072,347.699646 511.283813,348.461365 
	C506.050812,356.397614 497.962921,357.294952 491.144165,350.681152 
	C490.309509,349.871582 489.428497,349.109863 488.284546,348.163025 
	C488.000092,348.000122 488.011688,348.012817 488.011688,348.012817 
	C487.331085,344.745300 486.650513,341.477783 485.967041,337.801788 
M506.045013,346.424377 
	C509.101562,341.853546 508.710327,336.931061 505.062469,334.062775 
	C501.184204,331.013306 497.078186,331.181610 493.972290,334.517395 
	C491.197235,337.497864 491.410522,341.733398 494.540283,345.796722 
	C497.295929,349.374359 500.641296,349.729919 506.045013,346.424377 
z"/>
<path fill="#F0D381" opacity="1.000000" stroke="none" 
	d="
M536.527161,41.454994 
	C543.516846,45.609825 550.176453,49.622192 558.124084,54.410561 
	C557.157715,48.627239 556.439941,44.032043 555.604309,39.458389 
	C555.186340,37.170567 554.706543,34.871681 553.982788,32.667057 
	C552.742554,28.888990 554.057739,26.628233 558.468628,25.311863 
	C563.706116,32.834225 569.153870,40.516964 574.356628,48.362206 
	C574.847107,49.101871 573.796387,50.863605 573.461182,52.150810 
	C572.384460,51.717674 570.917358,51.590809 570.296814,50.799812 
	C567.170288,46.814491 564.264648,42.655956 561.281494,38.558216 
	C560.905640,38.740959 560.529846,38.923706 560.153992,39.106449 
	C561.254456,44.365189 562.544922,49.595310 563.343750,54.899471 
	C563.595032,56.567856 563.026062,58.979317 561.889099,60.021873 
	C561.116699,60.730160 558.460449,60.073559 557.064697,59.286259 
	C552.469360,56.694160 548.064453,53.764519 543.586426,50.964504 
	C543.245483,51.235012 542.904541,51.505520 542.563660,51.776028 
	C544.629456,54.909142 546.906921,57.927746 548.685974,61.215996 
	C549.853943,63.374786 553.767151,65.255623 550.449036,68.166069 
	C550.015137,68.546646 546.275330,66.037926 544.851990,64.244331 
	C540.726013,59.045338 536.879211,53.610783 533.155090,48.111393 
	C530.154480,43.680378 530.806580,42.466122 536.527161,41.454994 
z"/>
<path fill="#EFD381" opacity="1.000000" stroke="none" 
	d="
M537.012878,313.072235 
	C535.150330,307.685181 532.726746,301.926605 537.564453,297.194366 
	C541.203247,293.634888 545.778931,290.935364 550.247681,288.399506 
	C551.214294,287.851013 554.094421,289.178223 555.086243,290.435699 
	C558.890198,295.258698 562.404419,300.325897 565.784912,305.461182 
	C567.718140,308.397919 567.971191,311.098389 563.429749,312.084900 
	C562.309387,312.328217 561.137146,313.314117 560.420593,314.279297 
	C554.751160,321.915924 548.393066,322.929413 540.783875,317.309784 
	C540.126831,316.824493 539.360413,316.487244 538.082397,315.788574 
	C537.350952,314.688080 537.181885,313.880157 537.012878,313.072235 
M542.207214,309.065125 
	C543.273254,310.310944 544.168884,311.776550 545.438110,312.760284 
	C548.898865,315.442657 555.221558,314.172760 556.480164,310.374847 
	C557.724792,306.618988 557.807007,302.135345 554.076904,300.109009 
	C551.284790,298.592224 546.832825,297.979584 544.047974,299.157867 
	C540.740662,300.557251 540.467834,304.727997 542.207214,309.065125 
z"/>
<path fill="#F0D381" opacity="1.000000" stroke="none" 
	d="
M202.009827,33.014851 
	C201.611237,28.198805 197.100876,23.794979 200.128983,18.721655 
	C201.739410,16.023510 203.872696,13.379471 206.381348,11.548738 
	C208.838470,9.755598 212.970810,10.372349 213.923981,6.166716 
	C213.979691,5.920932 217.070572,5.670937 217.576263,6.326927 
	C222.324707,12.486689 226.934860,18.766167 231.213425,25.256010 
	C231.672012,25.951632 229.773972,29.494936 228.959930,29.498312 
	C226.278656,29.509428 225.484314,30.856279 224.279434,32.847828 
	C220.841782,38.529980 211.780197,39.809753 206.262543,35.707630 
	C205.079224,34.827881 203.878143,33.972031 202.342789,33.052933 
	C202.000336,33.000683 202.009827,33.014851 202.009827,33.014851 
M210.146255,30.612150 
	C215.203964,33.002853 218.430618,32.296822 220.808395,28.279144 
	C223.095795,24.414175 221.689713,20.055948 217.083557,16.733870 
	C213.634140,14.246060 210.227417,14.730955 207.417725,18.109682 
	C204.761841,21.303427 205.522156,25.522188 210.146255,30.612150 
z"/>
<path fill="#F0D383" opacity="1.000000" stroke="none" 
	d="
M487.994080,347.994202 
	C488.662476,351.034515 489.750092,354.056702 489.928864,357.131744 
	C490.356628,364.491180 486.273499,369.569611 478.904968,371.521698 
	C472.720612,373.160034 466.606903,370.267792 463.050507,364.021179 
	C459.705017,358.145050 460.758728,351.377014 465.736450,346.769409 
	C470.743103,342.135040 477.866638,341.588867 483.637085,345.404510 
	C484.871490,346.220795 486.089661,347.061646 487.663483,347.952026 
	C488.011688,348.012817 488.000092,348.000122 487.994080,347.994202 
M471.582123,364.012878 
	C474.947266,366.640900 478.261749,366.573853 481.552063,363.857269 
	C484.640259,361.307587 484.634949,358.011902 483.263092,354.800232 
	C481.637299,350.994019 478.563568,348.421967 474.273682,349.203400 
	C472.126892,349.594421 469.251312,351.228882 468.518707,353.036072 
	C467.040894,356.681488 467.778076,360.578674 471.582123,364.012878 
z"/>
<path fill="#F0D383" opacity="1.000000" stroke="none" 
	d="
M113.993729,362.994507 
	C116.540100,369.638031 117.799706,376.094757 111.754967,381.766144 
	C105.613899,387.527924 97.903000,387.415558 91.847443,381.355957 
	C85.848114,375.352631 85.549286,367.096741 91.124352,361.379303 
	C96.892265,355.464172 105.498894,355.321869 111.556282,361.034027 
	C112.158607,361.602020 112.800629,362.127930 113.717636,362.845032 
	C114.011040,363.016693 114.000443,363.000885 113.993729,362.994507 
M108.617470,367.160706 
	C107.215813,366.017944 105.966347,364.564209 104.384331,363.789917 
	C99.381432,361.341278 94.388176,364.297150 94.004295,369.728638 
	C93.701035,374.019409 95.465500,377.543732 99.342110,378.897552 
	C101.588974,379.682251 105.081589,379.303253 107.037735,377.992096 
	C110.576057,375.620300 110.836121,371.681976 108.617470,367.160706 
z"/>
<path fill="#F0D381" opacity="1.000000" stroke="none" 
	d="
M152.994659,67.995300 
	C156.239288,79.476402 152.487503,87.259964 142.563614,89.618675 
	C135.648453,91.262283 127.085289,85.195976 126.055740,77.924179 
	C124.777000,68.892403 129.918182,61.690979 137.966751,60.975018 
	C144.139984,60.425873 149.007034,62.404179 152.720306,67.835815 
	C153.009308,68.014397 153.000336,68.000664 152.994659,67.995300 
M147.530716,79.550575 
	C147.653381,77.580505 148.510635,75.229698 147.731720,73.726913 
	C146.468384,71.289429 144.487961,68.443352 142.143204,67.578690 
	C140.040894,66.803429 136.548569,67.776993 134.541519,69.204826 
	C130.904190,71.792480 131.269989,77.541481 134.647339,81.082970 
	C138.318970,84.933044 142.545959,84.642036 147.530716,79.550575 
z"/>
<path fill="#F0D383" opacity="1.000000" stroke="none" 
	d="
M536.663208,312.993225 
	C537.181885,313.880157 537.350952,314.688080 537.729614,315.727478 
	C539.266968,322.010101 540.785706,328.072205 535.352966,333.125671 
	C530.957153,337.214539 523.301208,338.474854 518.701050,335.794861 
	C512.568115,332.221924 509.608917,325.376587 511.154205,318.337433 
	C512.203979,313.555634 518.550903,307.823517 524.062805,308.322998 
	C528.250671,308.702545 532.237366,311.302338 536.663208,312.993225 
M519.457642,327.981354 
	C523.750977,331.889679 527.262939,332.167206 530.648987,328.865662 
	C533.847107,325.747375 533.887939,320.870239 530.745728,317.319153 
	C527.767700,313.953583 523.287598,313.229309 520.114929,315.600342 
	C516.493652,318.306610 516.019592,322.970978 519.457642,327.981354 
z"/>
<path fill="#F0D381" opacity="1.000000" stroke="none" 
	d="
M512.254822,79.733017 
	C504.979919,70.607605 505.112427,62.312046 512.370544,56.172806 
	C519.370300,50.252090 527.814880,50.707920 533.753784,57.327068 
	C540.626831,64.987297 540.922607,73.621132 534.529053,79.963158 
	C527.760071,86.677628 519.663757,86.688332 512.254822,79.733017 
M512.751343,63.522640 
	C510.829559,69.982635 514.038635,74.661392 518.836670,77.931198 
	C521.021729,79.420319 525.039734,79.890251 527.493164,78.936440 
	C531.499146,77.379028 534.721558,74.200775 533.935486,68.949646 
	C533.225342,64.205795 527.894226,57.773724 523.626892,57.204140 
	C518.921692,56.576103 515.191895,58.317860 512.751343,63.522640 
z"/>
<path fill="#F0D381" opacity="1.000000" stroke="none" 
	d="
M201.994415,32.995079 
	C204.923584,39.645718 205.097794,45.872932 199.257431,51.232048 
	C193.506485,56.509121 184.572479,56.377178 179.435059,50.896114 
	C173.564651,44.633045 173.481049,36.024452 179.234756,30.271254 
	C184.946442,24.560112 192.700577,24.581293 198.847488,30.320482 
	C199.698730,31.115255 200.567154,31.891638 201.718719,32.845695 
	C202.009827,33.014851 202.000336,33.000683 201.994415,32.995079 
M185.885956,47.907875 
	C186.983673,48.255787 188.062119,48.811596 189.182449,48.915344 
	C193.844193,49.347034 197.240570,46.510517 197.799545,41.869339 
	C198.317642,37.567612 194.322571,32.800903 189.653671,32.150112 
	C185.501129,31.571299 181.338165,34.374405 181.488373,38.805321 
	C181.587982,41.743122 183.905640,44.605728 185.885956,47.907875 
z"/>
<path fill="#F0D383" opacity="1.000000" stroke="none" 
	d="
M460.865906,388.074951 
	C458.558533,394.303894 456.144165,395.347870 450.595734,392.799622 
	C445.607452,390.508667 440.614471,388.222961 435.693756,385.792694 
	C434.081512,384.996399 432.172211,384.060669 431.329041,382.637512 
	C430.297974,380.897369 429.258118,378.036926 430.020050,376.645447 
	C430.967773,374.914642 434.392609,372.724182 435.641327,373.268829 
	C443.780792,376.818939 451.640991,381.017242 459.522675,385.137115 
	C460.226044,385.504761 460.432434,386.823181 460.865906,388.074951 
z"/>
<path fill="#EFD381" opacity="1.000000" stroke="none" 
	d="
M99.894707,91.000519 
	C107.773270,94.494476 115.393555,97.711700 122.589752,101.695068 
	C124.050034,102.503387 124.836418,106.449646 124.285553,108.508354 
	C123.511887,111.399712 120.556572,112.933846 117.450066,111.556068 
	C110.486519,108.467628 103.488441,105.375313 96.882164,101.620049 
	C95.214622,100.672142 94.042099,97.076019 94.376068,94.972084 
	C94.623245,93.414925 97.681061,92.303909 99.894707,91.000519 
z"/>
<path fill="#F0D381" opacity="1.000000" stroke="none" 
	d="
M456.689209,124.754852 
	C452.039642,126.899254 449.813843,129.663422 451.732635,134.766525 
	C452.088074,135.711868 450.499390,137.388184 449.807983,138.727112 
	C448.783813,137.743011 447.156708,136.925064 446.832458,135.748123 
	C444.580933,127.576538 442.490936,119.354858 440.634247,111.085243 
	C440.305695,109.621864 440.819580,107.028870 441.820496,106.435631 
	C443.200806,105.617538 445.876129,105.475327 447.193787,106.310486 
	C454.630371,111.024025 461.862152,116.066429 469.054962,121.150681 
	C469.857330,121.717827 469.972443,123.257256 470.406250,124.345787 
	C468.792053,124.552071 466.566284,125.530228 465.674988,124.824089 
	C462.654358,122.430862 460.005402,121.357391 456.689209,124.754852 
M446.540375,116.075378 
	C447.398315,118.621338 448.256226,121.167297 449.238251,124.081535 
	C450.973450,123.113129 452.399292,122.733894 453.126007,121.806709 
	C454.040924,120.639297 455.120392,117.945587 454.860992,117.768578 
	C452.212158,115.961166 449.305603,114.531509 446.471100,112.996231 
	C446.416809,113.785683 446.362518,114.575134 446.540375,116.075378 
z"/>
<path fill="#EFD280" opacity="1.000000" stroke="none" 
	d="
M415.060181,129.987900 
	C415.150787,127.885216 415.241394,125.782532 415.472473,123.326202 
	C418.166748,122.317894 420.693024,121.259064 423.279449,121.082870 
	C431.688599,120.510063 440.306396,128.308350 440.966827,136.778732 
	C441.638550,145.394638 435.325684,153.064987 426.259155,153.724640 
	C423.381287,153.934006 420.287689,152.306427 417.423584,151.185349 
	C415.471893,150.421417 413.747345,149.077164 411.569397,147.961792 
	C411.866486,145.078232 412.515411,142.225250 413.630737,139.267563 
	C415.936493,141.484894 417.656830,143.914810 419.641876,146.104782 
	C422.981232,149.788849 426.957031,149.602524 430.915527,147.286896 
	C435.173523,144.796097 436.633209,140.800385 435.245697,136.286865 
	C432.008636,125.756950 423.776886,123.188217 415.060181,129.987900 
z"/>
<path fill="#F0D381" opacity="1.000000" stroke="none" 
	d="
M502.187744,102.414597 
	C496.641754,105.489708 492.087311,103.563019 488.058380,100.292259 
	C483.223755,96.367462 480.085815,91.097000 480.410034,84.802902 
	C480.736816,78.458969 484.731323,74.066841 490.585022,71.835381 
	C494.973785,70.162361 499.315613,70.306496 503.668213,75.704033 
	C500.907593,76.001709 499.147522,76.586098 497.551910,76.288475 
	C493.031067,75.445206 489.169556,76.248276 486.619598,80.250504 
	C484.035950,84.305649 485.327362,88.118576 487.844482,91.819885 
	C493.652588,100.360512 499.730804,101.297684 505.240845,94.069351 
	C506.494049,92.425301 506.300262,89.739899 507.074341,87.645363 
	C507.525238,86.425323 508.575470,85.426781 509.356018,84.328568 
	C510.094421,85.318810 511.168427,86.204758 511.514130,87.317047 
	C513.154114,92.593872 509.497742,98.542824 502.187744,102.414597 
z"/>
<path fill="#EFD381" opacity="1.000000" stroke="none" 
	d="
M110.231339,119.122223 
	C102.625526,124.709267 95.246193,130.009262 87.896362,135.288071 
	C83.332474,129.375351 83.867355,123.441422 88.957184,119.728027 
	C93.114006,116.695320 97.192223,113.419266 101.746338,111.127556 
	C103.825439,110.081329 107.411171,110.322716 109.515434,111.458626 
	C112.232376,112.925270 112.516220,116.051712 110.231339,119.122223 
z"/>
<path fill="#F0D383" opacity="1.000000" stroke="none" 
	d="
M447.995911,359.012634 
	C446.728638,357.233856 445.248749,355.901154 444.677155,354.253418 
	C444.136993,352.696228 444.551331,350.807983 444.545807,349.065338 
	C446.358002,349.567444 448.903992,349.484619 449.852844,350.674927 
	C453.571869,355.340454 456.777344,360.414429 460.192902,365.323212 
	C462.185028,368.186310 464.588470,370.843140 466.083771,373.941711 
	C466.962891,375.763489 466.425171,378.268951 466.524719,380.466919 
	C464.647980,379.578735 462.120941,379.183533 461.008453,377.716003 
	C456.496002,371.763519 452.418182,365.481567 447.995911,359.012634 
z"/>
<path fill="#464238" opacity="1.000000" stroke="none" 
	d="
M294.591492,368.086121 
	C294.596436,365.608215 294.434052,363.588745 294.680542,361.620483 
	C294.793488,360.718628 295.710297,359.917480 296.262543,359.070648 
	C297.100708,359.716400 298.365723,360.191101 298.704681,361.036896 
	C300.346863,365.134460 301.740387,369.331635 303.406799,374.012421 
	C307.555908,369.193390 306.338501,362.063263 312.644714,357.836914 
	C312.644714,366.403595 312.644714,373.579254 312.644714,380.800537 
	C310.767548,380.043701 310.767548,380.043701 309.277435,366.544189 
	C307.681488,370.683472 306.085541,374.822723 303.913055,380.457336 
	C301.764221,375.338470 300.225372,371.672729 298.686523,368.006989 
	C298.322723,368.020721 297.958923,368.034424 297.595093,368.048157 
	C297.373627,372.373260 297.152161,376.698364 296.930664,381.023438 
	C296.258362,381.053284 295.586090,381.083130 294.913788,381.112976 
	C294.215729,377.010895 294.766113,372.738800 294.591492,368.086121 
z"/>
<path fill="#F0D381" opacity="1.000000" stroke="none" 
	d="
M117.627045,73.387566 
	C122.297188,80.072716 126.897560,86.372131 131.132523,92.908302 
	C131.932571,94.143066 131.279678,96.319237 131.297211,98.061012 
	C129.608688,97.600197 127.169914,97.694839 126.351692,96.589676 
	C120.427223,88.587563 114.719513,80.415848 109.247047,72.097916 
	C108.414871,70.833038 109.154343,68.534149 109.166878,66.713524 
	C110.836365,67.369911 112.746841,67.715103 114.108208,68.769363 
	C115.496719,69.844635 116.345528,71.616829 117.627045,73.387566 
z"/>
<path fill="#3D3B36" opacity="1.000000" stroke="none" 
	d="
M340.700928,373.543304 
	C340.700897,368.740631 340.700897,363.937927 340.700897,359.135254 
	C341.357941,359.137848 342.015015,359.140442 342.672058,359.143036 
	C342.672058,366.298126 342.672058,373.453217 342.672058,380.916443 
	C338.453064,380.842041 338.395081,376.687592 336.688080,374.293793 
	C334.801636,371.648407 333.337158,368.702148 331.688904,365.886902 
	C331.229126,365.937439 330.769348,365.987946 330.309570,366.038452 
	C330.309570,371.017059 330.309570,375.995667 330.309570,380.974274 
	C329.718903,380.967163 329.128204,380.960052 328.537537,380.952942 
	C328.537537,373.830017 328.537537,366.707092 328.537537,359.577850 
	C331.232452,359.717072 331.232452,359.717072 339.449158,374.378479 
	C339.987610,375.162506 340.194092,375.414886 340.400574,375.667267 
	C340.500702,374.959290 340.600800,374.251282 340.700928,373.543304 
z"/>
<path fill="#F0D383" opacity="1.000000" stroke="none" 
	d="
M136.978943,337.762604 
	C138.369217,337.341858 139.769409,337.285004 141.595184,337.451996 
	C142.020767,337.675873 142.074829,337.946564 142.199783,338.264160 
	C144.683121,342.789856 147.335587,346.319153 153.102722,345.204712 
	C157.606323,344.334442 158.885574,341.366943 159.041245,337.376953 
	C160.447067,337.327759 161.852875,337.278534 163.676849,337.317261 
	C163.770798,345.513000 159.900421,350.380646 153.296356,350.986359 
	C144.566879,351.786987 138.794083,347.234650 136.978943,337.762604 
z"/>
<path fill="#464238" opacity="1.000000" stroke="none" 
	d="
M353.022095,363.928711 
	C352.630188,367.911987 351.595367,371.842712 352.654358,375.090759 
	C353.237213,376.878448 357.269318,377.944824 359.906311,378.391113 
	C360.612579,378.510651 361.906342,375.158997 363.249878,372.852386 
	C360.591949,372.218079 359.145447,371.872864 357.698944,371.527679 
	C357.690582,371.084808 357.682220,370.641968 357.673859,370.199127 
	C359.839905,369.955719 362.005981,369.712311 364.587128,369.422272 
	C364.716797,371.054108 364.862915,372.155243 364.880890,373.258423 
	C364.934326,376.541077 365.619019,380.059692 360.901367,381.047211 
	C356.173065,382.036987 351.941620,380.439545 349.844818,376.528107 
	C345.398254,368.233398 350.028992,358.581696 358.453217,358.886169 
	C360.415497,358.957062 362.335724,360.191437 364.905060,361.117462 
	C360.183380,362.119904 356.718201,362.855560 353.022095,363.928711 
z"/>
<path fill="#EFD381" opacity="1.000000" stroke="none" 
	d="
M557.239380,284.210022 
	C559.152283,281.078491 561.461670,281.617889 563.050964,283.677307 
	C567.288269,289.168121 571.317444,294.833221 575.118896,300.632568 
	C575.710693,301.535461 574.996521,303.713226 574.244690,304.892395 
	C573.895447,305.440125 571.313049,305.496826 570.924133,304.944458 
	C566.205505,298.242737 561.707397,291.385742 557.239380,284.210022 
z"/>
<path fill="#464238" opacity="1.000000" stroke="none" 
	d="
M257.926758,371.675751 
	C258.559479,373.609070 258.756805,375.869324 259.860504,376.473328 
	C261.997650,377.642853 264.703094,378.459503 267.053192,378.224457 
	C268.023773,378.127319 268.685638,374.944183 269.681885,372.734344 
	C267.257568,372.232147 265.724243,371.914520 264.190948,371.596893 
	C264.147034,371.109467 264.103119,370.622070 264.059204,370.134674 
	C266.279846,369.923309 268.500519,369.711914 270.697968,369.502777 
	C272.426727,378.421539 271.473999,380.544922 265.803711,381.166351 
	C259.549377,381.851807 255.224335,377.894409 254.841827,371.136230 
	C254.409561,363.499268 259.003418,358.234589 265.783997,358.929962 
	C267.519470,359.107941 269.147766,360.330383 270.611237,361.556580 
	C258.621948,362.453339 258.035400,362.884125 257.926758,371.675751 
z"/>
<path fill="#F0D381" opacity="1.000000" stroke="none" 
	d="
M471.368835,116.580231 
	C466.558258,109.587570 461.944672,102.894066 457.051086,95.794312 
	C458.241486,94.863075 459.326843,94.014023 460.954102,92.741028 
	C467.021576,101.279160 472.848541,109.478828 478.645752,117.636642 
	C475.530640,121.590202 475.530640,121.590202 471.368835,116.580231 
z"/>
<path fill="#464238" opacity="1.000000" stroke="none" 
	d="
M282.902161,359.079773 
	C286.073853,366.156494 288.868073,373.209534 292.025726,381.180023 
	C286.280670,380.746002 288.413116,373.739380 282.382965,373.974792 
	C276.606445,374.200256 278.804657,380.748444 273.302399,381.252167 
	C276.727264,373.426331 277.067017,365.300568 282.902161,359.079773 
M284.823578,369.044220 
	C284.114532,366.904297 283.405487,364.764404 282.457336,361.902924 
	C281.341156,365.588318 280.450043,368.530640 279.558929,371.472961 
	C279.916290,371.895081 280.273621,372.317230 280.630981,372.739349 
	C282.077698,371.784729 283.524384,370.830109 284.823578,369.044220 
z"/>
<path fill="#EFD280" opacity="1.000000" stroke="none" 
	d="
M400.189209,172.877472 
	C403.016663,166.090515 406.211060,159.271378 409.640930,152.179230 
	C416.197449,156.272324 417.148865,159.680664 412.174225,164.886139 
	C409.000519,168.207138 404.475403,170.236694 400.189209,172.877472 
z"/>
<path fill="#F0D383" opacity="1.000000" stroke="none" 
	d="
M417.621643,375.135620 
	C416.255341,370.813751 417.853516,367.738800 421.663940,367.358002 
	C423.846222,367.139893 427.239441,368.959717 428.284393,370.855774 
	C429.026093,372.201569 427.340027,375.866150 425.698029,377.328674 
	C422.804230,379.906128 419.842377,378.656616 417.621643,375.135620 
z"/>
<path fill="#F0D381" opacity="1.000000" stroke="none" 
	d="
M81.712372,88.684593 
	C83.723587,84.502884 87.202240,84.016235 90.245338,85.661751 
	C91.765251,86.483620 93.223900,90.422447 92.500381,91.695526 
	C91.375175,93.675423 88.376358,95.677498 86.151550,95.700226 
	C82.470406,95.737823 80.909348,92.786453 81.712372,88.684593 
z"/>
<path fill="#F0D383" opacity="1.000000" stroke="none" 
	d="
M43.169228,385.352905 
	C43.936710,384.065796 44.462997,382.936035 45.344097,382.290649 
	C48.329651,380.103699 51.239845,380.439453 53.639389,383.243500 
	C56.212650,386.250519 54.718742,389.034882 52.275673,390.932617 
	C49.606533,393.005981 46.570965,392.504089 44.432911,389.772278 
	C43.609341,388.720001 43.516441,387.095856 43.169228,385.352905 
z"/>
<path fill="#464238" opacity="1.000000" stroke="none" 
	d="
M321.514526,380.349335 
	C320.520569,380.412445 319.129181,380.104919 319.123047,379.771851 
	C318.996582,372.914917 319.027954,366.055115 319.027954,358.760834 
	C322.329346,360.834625 322.486633,362.464539 321.514526,380.349335 
z"/>
<path fill="#F0D381" opacity="1.000000" stroke="none" 
	d="
M487.462463,108.783173 
	C486.974457,110.667091 486.281464,112.235916 485.588501,113.804733 
	C484.326202,113.232414 482.701599,112.951805 481.925537,111.987976 
	C481.383881,111.315224 481.779297,108.765610 482.144287,108.678383 
	C483.772430,108.289268 485.540161,108.484169 487.462463,108.783173 
z"/>
<path fill="#EFD381" opacity="1.000000" stroke="none" 
	d="
M551.602051,277.669861 
	C552.663818,276.268494 553.738770,274.969757 555.115845,274.244446 
	C555.549255,274.016144 557.284973,275.173981 557.532776,275.973724 
	C557.800964,276.839325 556.996155,278.935791 556.712830,278.926117 
	C555.043945,278.869141 553.390625,278.354553 551.602051,277.669861 
z"/>
<path fill="#FDD463" opacity="1.000000" stroke="none" 
	d="
M338.344940,201.234055 
	C319.526154,208.315659 300.379486,208.372955 281.756622,201.593735 
	C247.466309,189.111176 227.698639,164.021622 222.287003,128.100815 
	C215.261551,81.467903 250.746078,35.453381 297.424774,29.936005 
	C338.200928,25.116301 373.640503,44.402641 391.103088,81.358040 
	C399.882172,99.936790 401.222321,119.381233 395.500122,139.648743 
	C388.446808,141.737991 382.871826,145.114685 382.039215,152.160660 
	C381.533173,156.442993 383.406403,161.006470 384.210815,165.443649 
	C383.703003,166.279617 383.195160,167.115585 382.255829,167.750305 
	C376.344666,158.506454 365.962921,157.221695 358.174072,164.215591 
	C350.238342,171.341400 352.358704,182.457077 361.381805,189.239624 
	C355.558350,192.576859 349.734894,195.914093 343.385315,199.021027 
	C339.750244,194.482910 336.766449,190.073853 333.431061,185.949097 
	C332.729706,185.081772 330.736725,185.258881 329.338928,184.954727 
	C329.302551,186.236786 328.739105,187.869141 329.319031,188.741592 
	C332.160614,193.016785 335.306549,197.089661 338.344940,201.234055 
M276.453186,131.952652 
	C266.931213,141.463501 257.409271,150.974365 248.155655,160.217178 
	C255.819412,168.029160 263.243378,175.596695 270.259399,182.748413 
	C272.676147,180.904037 275.115906,179.042099 277.657471,177.102463 
	C274.304199,173.597305 271.568420,170.737640 269.120636,168.178970 
	C270.686462,166.260101 271.999847,164.650574 274.445312,161.653732 
	C278.136719,166.131638 281.381927,170.068237 283.835907,173.045059 
	C286.664093,170.938568 289.019501,169.184204 291.558868,167.292831 
	C287.679504,163.230331 284.177307,159.562790 281.207825,156.453094 
	C290.817871,146.727478 300.012085,137.422729 309.764038,127.553505 
	C316.798615,134.986267 323.968048,142.561554 330.307129,149.259460 
	C344.117889,135.506531 357.377899,122.302040 369.854584,109.877602 
	C350.753754,90.679810 331.207733,71.034554 312.427979,52.159443 
	C299.538239,64.903397 286.336609,77.955711 272.284637,91.848763 
	C279.689117,98.775742 287.306152,105.901596 295.219818,113.304962 
	C288.744781,119.722984 282.838287,125.577438 276.453186,131.952652 
z"/>
<path fill="#FED564" opacity="1.000000" stroke="none" 
	d="
M414.922302,130.367218 
	C423.776886,123.188217 432.008636,125.756950 435.245697,136.286865 
	C436.633209,140.800385 435.173523,144.796097 430.915527,147.286896 
	C426.957031,149.602524 422.981232,149.788849 419.641876,146.104782 
	C417.656830,143.914810 415.936493,141.484894 413.796326,138.942932 
	C413.925171,136.064194 414.354797,133.405365 414.922302,130.367218 
z"/>
<path fill="#FCD465" opacity="1.000000" stroke="none" 
	d="
M379.106110,172.229858 
	C374.753387,176.821564 370.400665,181.413269 365.410828,185.931183 
	C363.002167,183.512253 360.975220,181.314407 359.518158,178.787903 
	C357.264526,174.880280 357.911316,170.457703 361.112244,167.941574 
	C363.597046,165.988358 367.991821,164.807373 370.948944,165.568954 
	C374.035126,166.363800 376.416565,169.894943 379.106110,172.229858 
z"/>
<path fill="#EFD381" opacity="1.000000" stroke="none" 
	d="
M379.400635,172.088806 
	C376.416565,169.894943 374.035126,166.363800 370.948944,165.568954 
	C367.991821,164.807373 363.597046,165.988358 361.112244,167.941574 
	C357.911316,170.457703 357.264526,174.880280 359.518158,178.787903 
	C360.975220,181.314407 363.002167,183.512253 365.100037,186.032898 
	C364.281097,187.153137 363.135803,188.097839 361.686157,189.141083 
	C352.358704,182.457077 350.238342,171.341400 358.174072,164.215591 
	C365.962921,157.221695 376.344666,158.506454 381.980103,167.868530 
	C381.322266,169.441238 380.508698,170.694504 379.400635,172.088806 
z"/>
<path fill="#EFD280" opacity="1.000000" stroke="none" 
	d="
M384.482544,165.232849 
	C383.406403,161.006470 381.533173,156.442993 382.039215,152.160660 
	C382.871826,145.114685 388.446808,141.737991 395.330902,140.014130 
	C395.198395,141.774811 394.711884,143.553757 393.700287,145.668716 
	C386.903168,148.638290 385.523987,152.135529 388.031860,159.046997 
	C386.939331,161.038696 385.846802,163.030380 384.482544,165.232849 
z"/>
<path fill="#EFD381" opacity="1.000000" stroke="none" 
	d="
M338.675293,201.207428 
	C335.306549,197.089661 332.160614,193.016785 329.319031,188.741592 
	C328.739105,187.869141 329.302551,186.236786 329.338928,184.954727 
	C330.736725,185.258881 332.729706,185.081772 333.431061,185.949097 
	C336.766449,190.073853 339.750244,194.482910 343.026123,199.119720 
	C341.797241,200.026062 340.401428,200.603424 338.675293,201.207428 
z"/>
<path fill="#F6CF64" opacity="1.000000" stroke="none" 
	d="
M388.293518,158.817871 
	C385.523987,152.135529 386.903168,148.638290 393.538208,145.976852 
	C392.119202,150.162231 390.337189,154.375473 388.293518,158.817871 
z"/>
<path fill="#FDD565" opacity="1.000000" stroke="none" 
	d="
M144.545441,268.016357 
	C144.545303,265.404083 144.545303,263.291473 144.545303,261.029541 
	C154.197159,261.029541 163.280609,260.609558 172.301208,261.181183 
	C178.056747,261.545868 180.431015,265.768402 180.349823,272.889404 
	C180.273926,279.544373 177.402710,283.900757 171.106262,284.382904 
	C162.564743,285.036926 153.935516,284.545654 144.545593,284.545654 
	C144.545593,279.287689 144.545593,273.901886 144.545441,268.016357 
z"/>
<path fill="#FDD565" opacity="1.000000" stroke="none" 
	d="
M161.973099,324.208862 
	C160.616150,324.268829 159.259186,324.328827 157.231750,324.022766 
	C152.637314,323.462921 148.713348,323.269135 144.789383,323.075348 
	C144.789383,314.932465 144.789383,306.789612 144.789383,297.518524 
	C155.152985,298.076019 165.373688,298.625824 175.825256,299.772827 
	C174.203842,302.478851 172.755722,305.512421 170.426666,306.530396 
	C162.017975,310.205536 159.378479,315.140869 161.973099,324.208862 
z"/>
<path fill="#E1C67B" opacity="1.000000" stroke="none" 
	d="
M162.304749,324.346130 
	C159.378479,315.140869 162.017975,310.205536 170.426666,306.530396 
	C172.755722,305.512421 174.203842,302.478851 176.153061,299.993713 
	C182.767899,302.469238 184.538345,307.461670 182.287720,317.406647 
	C180.859619,312.585968 177.178787,311.103455 173.102951,311.343170 
	C169.321320,311.565582 167.489487,314.774292 167.300491,318.248413 
	C167.194336,320.199982 168.445480,322.225342 169.085129,324.217468 
	C166.935562,324.306122 164.785980,324.394775 162.304749,324.346130 
z"/>
<path fill="#FCD465" opacity="1.000000" stroke="none" 
	d="
M169.506180,324.272583 
	C168.445480,322.225342 167.194336,320.199982 167.300491,318.248413 
	C167.489487,314.774292 169.321320,311.565582 173.102951,311.343170 
	C177.178787,311.103455 180.859619,312.585968 182.023224,317.668854 
	C179.904770,323.769043 174.871323,323.962158 169.506180,324.272583 
z"/>
<path fill="#F6CF64" opacity="1.000000" stroke="none" 
	d="
M158.577637,337.288971 
	C158.885574,341.366943 157.606323,344.334442 153.102722,345.204712 
	C147.335587,346.319153 144.683121,342.789856 142.359024,338.197327 
	C142.597626,337.697571 142.780075,337.554291 142.940628,337.383148 
	C147.998428,337.322418 153.056229,337.261719 158.577637,337.288971 
z"/>
<path fill="#E1C67B" opacity="1.000000" stroke="none" 
	d="
M144.870026,323.466858 
	C148.713348,323.269135 152.637314,323.462921 156.832977,323.929626 
	C153.053329,324.087769 149.002014,323.973053 144.870026,323.466858 
z"/>
<path fill="#EFD282" opacity="1.000000" stroke="none" 
	d="
M142.702881,337.323944 
	C142.780075,337.554291 142.597626,337.697571 142.234070,337.879761 
	C142.074829,337.946564 142.020767,337.675873 142.007629,337.538483 
	C141.994476,337.401093 142.465149,337.264740 142.702881,337.323944 
z"/>
<path fill="#FCD465" opacity="1.000000" stroke="none" 
	d="
M456.796539,326.380066 
	C439.105133,327.138916 431.936340,311.345734 436.480530,299.067200 
	C439.286560,291.485291 446.545380,286.602112 455.162933,286.573151 
	C463.735870,286.544342 472.199402,291.161041 474.080597,298.633270 
	C477.208130,311.056030 475.274017,323.493652 456.796539,326.380066 
z"/>
<path fill="#F6CF64" opacity="1.000000" stroke="none" 
	d="
M379.985901,301.848450 
	C372.187531,301.820160 364.886871,301.795837 357.586365,301.749847 
	C357.276642,301.747894 356.968201,301.544678 356.660248,301.432190 
	C355.872589,290.759552 365.864838,286.588745 374.288300,286.523712 
	C385.772095,286.435059 392.818756,292.078308 392.730469,301.848480 
	C388.659637,301.848480 384.571655,301.848480 379.985901,301.848450 
z"/>
<path fill="#FCD465" opacity="1.000000" stroke="none" 
	d="
M263.384003,316.055786 
	C258.208527,324.627350 251.383667,327.685669 241.687881,326.048218 
	C234.633041,324.856750 228.652435,318.805908 227.186203,311.376221 
	C225.409775,302.374603 228.380997,293.820801 234.739532,289.631042 
	C241.079147,285.453735 251.695084,285.595276 257.904053,289.939880 
	C264.143433,294.305786 266.949249,303.548615 264.690033,312.410309 
	C264.403992,313.532318 263.940918,314.609161 263.384003,316.055786 
z"/>
<path fill="#FED564" opacity="1.000000" stroke="none" 
	d="
M167.895508,66.014923 
	C161.354233,67.147835 155.111343,61.944622 156.559845,56.508064 
	C157.192657,54.132957 159.309555,51.311947 161.478058,50.377892 
	C165.028275,48.848682 169.073715,49.951241 170.878983,53.698067 
	C172.025513,56.077682 172.144577,59.238171 171.804611,61.932426 
	C171.623825,63.365215 169.484695,64.550888 167.895508,66.014923 
z"/>
<path fill="#FDD565" opacity="1.000000" stroke="none" 
	d="
M127.504852,346.123230 
	C132.826141,348.517853 135.320648,352.259125 134.467392,356.040894 
	C133.542007,360.142303 129.446442,363.404358 125.854752,362.900787 
	C122.146446,362.380829 117.684006,356.421295 118.038345,352.462067 
	C118.394363,348.484131 121.755348,346.113831 127.504852,346.123230 
z"/>
<path fill="#FDD565" opacity="1.000000" stroke="none" 
	d="
M505.757050,346.691315 
	C500.641296,349.729919 497.295929,349.374359 494.540283,345.796722 
	C491.410522,341.733398 491.197235,337.497864 493.972290,334.517395 
	C497.078186,331.181610 501.184204,331.013306 505.062469,334.062775 
	C508.710327,336.931061 509.101562,341.853546 505.757050,346.691315 
z"/>
<path fill="#FDD565" opacity="1.000000" stroke="none" 
	d="
M542.081299,308.699097 
	C540.467834,304.727997 540.740662,300.557251 544.047974,299.157867 
	C546.832825,297.979584 551.284790,298.592224 554.076904,300.109009 
	C557.807007,302.135345 557.724792,306.618988 556.480164,310.374847 
	C555.221558,314.172760 548.898865,315.442657 545.438110,312.760284 
	C544.168884,311.776550 543.273254,310.310944 542.081299,308.699097 
z"/>
<path fill="#FED564" opacity="1.000000" stroke="none" 
	d="
M209.860748,30.346626 
	C205.522156,25.522188 204.761841,21.303427 207.417725,18.109682 
	C210.227417,14.730955 213.634140,14.246060 217.083557,16.733870 
	C221.689713,20.055948 223.095795,24.414175 220.808395,28.279144 
	C218.430618,32.296822 215.203964,33.002853 209.860748,30.346626 
z"/>
<path fill="#FDD565" opacity="1.000000" stroke="none" 
	d="
M471.297577,363.753967 
	C467.778076,360.578674 467.040894,356.681488 468.518707,353.036072 
	C469.251312,351.228882 472.126892,349.594421 474.273682,349.203400 
	C478.563568,348.421967 481.637299,350.994019 483.263092,354.800232 
	C484.634949,358.011902 484.640259,361.307587 481.552063,363.857269 
	C478.261749,366.573853 474.947266,366.640900 471.297577,363.753967 
z"/>
<path fill="#FDD565" opacity="1.000000" stroke="none" 
	d="
M108.860672,367.464905 
	C110.836121,371.681976 110.576057,375.620300 107.037735,377.992096 
	C105.081589,379.303253 101.588974,379.682251 99.342110,378.897552 
	C95.465500,377.543732 93.701035,374.019409 94.004295,369.728638 
	C94.388176,364.297150 99.381432,361.341278 104.384331,363.789917 
	C105.966347,364.564209 107.215813,366.017944 108.860672,367.464905 
z"/>
<path fill="#FED564" opacity="1.000000" stroke="none" 
	d="
M147.319778,79.887817 
	C142.545959,84.642036 138.318970,84.933044 134.647339,81.082970 
	C131.269989,77.541481 130.904190,71.792480 134.541519,69.204826 
	C136.548569,67.776993 140.040894,66.803429 142.143204,67.578690 
	C144.487961,68.443352 146.468384,71.289429 147.731720,73.726913 
	C148.510635,75.229698 147.653381,77.580505 147.319778,79.887817 
z"/>
<path fill="#FDD565" opacity="1.000000" stroke="none" 
	d="
M519.185425,327.702942 
	C516.019592,322.970978 516.493652,318.306610 520.114929,315.600342 
	C523.287598,313.229309 527.767700,313.953583 530.745728,317.319153 
	C533.887939,320.870239 533.847107,325.747375 530.648987,328.865662 
	C527.262939,332.167206 523.750977,331.889679 519.185425,327.702942 
z"/>
<path fill="#FED564" opacity="1.000000" stroke="none" 
	d="
M512.912842,63.171150 
	C515.191895,58.317860 518.921692,56.576103 523.626892,57.204140 
	C527.894226,57.773724 533.225342,64.205795 533.935486,68.949646 
	C534.721558,74.200775 531.499146,77.379028 527.493164,78.936440 
	C525.039734,79.890251 521.021729,79.420319 518.836670,77.931198 
	C514.038635,74.661392 510.829559,69.982635 512.912842,63.171150 
z"/>
<path fill="#FED564" opacity="1.000000" stroke="none" 
	d="
M185.558167,47.704933 
	C183.905640,44.605728 181.587982,41.743122 181.488373,38.805321 
	C181.338165,34.374405 185.501129,31.571299 189.653671,32.150112 
	C194.322571,32.800903 198.317642,37.567612 197.799545,41.869339 
	C197.240570,46.510517 193.844193,49.347034 189.182449,48.915344 
	C188.062119,48.811596 186.983673,48.255787 185.558167,47.704933 
z"/>
<path fill="#FDD565" opacity="1.000000" stroke="none" 
	d="
M446.424286,115.719986 
	C446.362518,114.575134 446.416809,113.785683 446.471100,112.996231 
	C449.305603,114.531509 452.212158,115.961166 454.860992,117.768578 
	C455.120392,117.945587 454.040924,120.639297 453.126007,121.806709 
	C452.399292,122.733894 450.973450,123.113129 449.238251,124.081535 
	C448.256226,121.167297 447.398315,118.621338 446.424286,115.719986 
z"/>
<path fill="#FED564" opacity="1.000000" stroke="none" 
	d="
M340.411560,373.742859 
	C340.600800,374.251282 340.500702,374.959290 340.400574,375.667267 
	C340.194092,375.414886 339.987610,375.162506 339.673462,374.641113 
	C339.751282,374.228851 339.936768,374.085632 340.411560,373.742859 
z"/>
<path fill="#F6CF64" opacity="1.000000" stroke="none" 
	d="
M284.897339,369.459839 
	C283.524384,370.830109 282.077698,371.784729 280.630981,372.739349 
	C280.273621,372.317230 279.916290,371.895081 279.558929,371.472961 
	C280.450043,368.530640 281.341156,365.588318 282.457336,361.902924 
	C283.405487,364.764404 284.114532,366.904297 284.897339,369.459839 
z"/>
<path fill="#363534" opacity="1.000000" stroke="none" 
	d="
M276.692505,131.692261 
	C282.838287,125.577438 288.744781,119.722984 295.219818,113.304962 
	C287.306152,105.901596 279.689117,98.775742 272.284637,91.848763 
	C286.336609,77.955711 299.538239,64.903397 312.427979,52.159443 
	C331.207733,71.034554 350.753754,90.679810 369.854584,109.877602 
	C357.377899,122.302040 344.117889,135.506531 330.307129,149.259460 
	C323.968048,142.561554 316.798615,134.986267 309.764038,127.553505 
	C300.012085,137.422729 290.817871,146.727478 281.207825,156.453094 
	C284.177307,159.562790 287.679504,163.230331 291.558868,167.292831 
	C289.019501,169.184204 286.664093,170.938568 283.835907,173.045059 
	C281.381927,170.068237 278.136719,166.131638 274.445312,161.653732 
	C271.999847,164.650574 270.686462,166.260101 269.120636,168.178970 
	C271.568420,170.737640 274.304199,173.597305 277.657471,177.102463 
	C275.115906,179.042099 272.676147,180.904037 270.259399,182.748413 
	C263.243378,175.596695 255.819412,168.029160 248.155655,160.217178 
	C257.409271,150.974365 266.931213,141.463501 276.692505,131.692261 
M338.779022,115.297676 
	C340.458130,113.517120 342.137238,111.736572 343.364624,110.435013 
	C332.723389,99.757088 322.411499,89.409645 312.490967,79.454941 
	C308.635864,83.033760 304.559998,86.817497 300.669800,90.428909 
	C311.137024,100.961983 321.436432,111.326210 332.792358,122.753563 
	C334.578888,120.488571 336.430939,118.140541 338.779022,115.297676 
z"/>
<path fill="#F8D062" opacity="1.000000" stroke="none" 
	d="
M338.531006,115.545090 
	C336.430939,118.140541 334.578888,120.488571 332.792358,122.753563 
	C321.436432,111.326210 311.137024,100.961983 300.669800,90.428909 
	C304.559998,86.817497 308.635864,83.033760 312.490967,79.454941 
	C322.411499,89.409645 332.723389,99.757088 343.364624,110.435013 
	C342.137238,111.736572 340.458130,113.517120 338.531006,115.545090 
z"/>
</svg>